<?xml version="1.0" encoding="UTF-8"?><svg id="a" xmlns="http://www.w3.org/2000/svg" viewBox="0 0 253.13 253.13"><rect x="85.67" y="116.43" width="29" height="57" stroke="#545454" stroke-linecap="round" stroke-linejoin="round" stroke-width=".24"/><path d="m114.83,125.26c-.11-.81-.17-1.63-.17-2.46,0-10.7,9.4-19.38,21-19.38l8.74-.25.03-28.48-17.77-.27c-22.64,0-41,18.36-41,41,0,1.76.11,3.5.33,5.2" stroke="#545454" stroke-linecap="round" stroke-linejoin="round" stroke-width=".24"/><rect x="96.76" y="102.25" width="59.8" height="23.3" transform="translate(-43.65 116.98) rotate(-43)" fill="none" stroke="#000" stroke-linecap="square" stroke-miterlimit="10" stroke-width="3"/><path d="m189.67,145.43c1.32-1.33,2.63-2.67,3.95-4,.99-2.41,3.7-9.96,1.03-19-2.37-8.02-7.64-12.64-9.23-14-3.57-3.05-7.04-4.53-8.2-5-3.24-1.3-6.15-1.8-8.2-2h-13.33" fill="none" stroke="#000" stroke-miterlimit="10" stroke-width="3"/><rect x="124.66" y="146.75" width="66.92" height="23.68" transform="translate(-65.68 150.44) rotate(-43)" fill="none" stroke="#000" stroke-linecap="square" stroke-miterlimit="10" stroke-width="3"/></svg>